<svg width="16" height="121" viewBox="0 0 16 121" fill="none" xmlns="http://www.w3.org/2000/svg">
<g filter="url(#filter0_d)">
<path d="M8.35355 18.3601C8.15829 18.1649 7.84171 18.1649 7.64645 18.3601L4.46447 21.5421C4.2692 21.7374 4.2692 22.054 4.46447 22.2492C4.65973 22.4445 4.97631 22.4445 5.17157 22.2492L8 19.4208L10.8284 22.2492C11.0237 22.4445 11.3403 22.4445 11.5355 22.2492C11.7308 22.054 11.7308 21.7374 11.5355 21.5421L8.35355 18.3601ZM8.5 40.6539V18.7137H7.5L7.5 40.6539H8.5Z" fill="#FCFDFB"/>
<path d="M7.64645 102.534C7.84171 102.729 8.15829 102.729 8.35355 102.534L11.5355 99.352C11.7308 99.1568 11.7308 98.8402 11.5355 98.6449C11.3403 98.4497 11.0237 98.4497 10.8284 98.6449L8 101.473L5.17157 98.6449C4.97631 98.4497 4.65973 98.4497 4.46447 98.6449C4.2692 98.8402 4.2692 99.1568 4.46447 99.352L7.64645 102.534ZM7.5 80.1461L7.5 102.18H8.5V80.1461H7.5Z" fill="black"/>
</g>
<defs>
<filter id="filter0_d" x="0.317993" y="0" width="15.364" height="128.8" filterUnits="userSpaceOnUse" color-interpolation-filters="sRGB">
<feFlood flood-opacity="0" result="BackgroundImageFix"/>
<feColorMatrix in="SourceAlpha" type="matrix" values="0 0 0 0 0 0 0 0 0 0 0 0 0 0 0 0 0 0 127 0"/>
<feOffset dy="4"/>
<feGaussianBlur stdDeviation="2"/>
<feColorMatrix type="matrix" values="0 0 0 0 0 0 0 0 0 0 0 0 0 0 0 0 0 0 0.25 0"/>
<feBlend mode="normal" in2="BackgroundImageFix" result="effect1_dropShadow"/>
<feBlend mode="normal" in="SourceGraphic" in2="effect1_dropShadow" result="shape"/>
</filter>
</defs>
</svg>
