<svg width="16" height="94" viewBox="0 0 16 94" fill="none" xmlns="http://www.w3.org/2000/svg">
    <g filter="url(#filter0_d)">
        <path
            d="M8.35355 14.1464C8.15829 13.9512 7.84171 13.9512 7.64645 14.1464L4.46447 17.3284C4.2692 17.5237 4.2692 17.8403 4.46447 18.0355C4.65973 18.2308 4.97631 18.2308 5.17157 18.0355L8 15.2071L10.8284 18.0355C11.0237 18.2308 11.3403 18.2308 11.5355 18.0355C11.7308 17.8403 11.7308 17.5237 11.5355 17.3284L8.35355 14.1464ZM8.5 31.5V14.5H7.5L7.5 31.5H8.5Z"
            fill="#FCFDFB" />
        <path
            d="M7.64645 79.5265C7.84171 79.7218 8.15829 79.7218 8.35355 79.5265L11.5355 76.3445C11.7308 76.1492 11.7308 75.8327 11.5355 75.6374C11.3403 75.4421 11.0237 75.4421 10.8284 75.6374L8 78.4658L5.17157 75.6374C4.97631 75.4421 4.65973 75.4421 4.46447 75.6374C4.2692 75.8327 4.2692 76.1492 4.46447 76.3445L7.64645 79.5265ZM7.5 62.1L7.5 79.1729H8.5V62.1H7.5Z"
            fill="#0f3a53" />
    </g>
    <defs>
        <filter id="filter0_d" x="0.317993" y="0" width="15.364" height="101.6" filterUnits="userSpaceOnUse"
            color-interpolation-filters="sRGB">
            <feFlood flood-opacity="0" result="BackgroundImageFix" />
            <feColorMatrix in="SourceAlpha" type="matrix" values="0 0 0 0 0 0 0 0 0 0 0 0 0 0 0 0 0 0 127 0" />
            <feOffset dy="4" />
            <feGaussianBlur stdDeviation="2" />
            <feColorMatrix type="matrix" values="0 0 0 0 0 0 0 0 0 0 0 0 0 0 0 0 0 0 0.25 0" />
            <feBlend mode="normal" in2="BackgroundImageFix" result="effect1_dropShadow" />
            <feBlend mode="normal" in="SourceGraphic" in2="effect1_dropShadow" result="shape" />
        </filter>
    </defs>
</svg>